# xmcd
#
# Track frame offsets:
#	150
#	17578
#	30477
#	47664
#	63453
#	80782
#	93677
#	108950
#	123504
#	139371
#	150330
#	167236
#	179045
#	193178
#	205755
#	220380
#	235468
#	248810
#	265388
#	276161
#	286960
#	303209
#	319060
#
# Disc length: 4449 seconds
#
# Revision: 1
# Processed by: cddbd v1.5.2PL0 Copyright (c) Steve Scherf et al.
# Submitted via: audiograbber 1.83.01
#
DISCID=5a115f17
DTITLE=Glenn Erickson - Smalltown USA
DYEAR=2017
DGENRE=Country
TTITLE0=Smalltown USA -Dave Parks
TTITLE1=Do´wanna Sleep Alone -Glenn Erickson
TTITLE2=Pourin´Rain - Jackie Cook
TTITLE3=Santa Ana Blues -Glenn Erickson
TTITLE4=Alone Inside My Mind -Chris Anderson
TTITLE5=I´ll Drink To That -Glenn Erickson
TTITLE6=It Coulden´t Happend Withouth Tears -Shavonne
TTITLE7=Keep Her Satisfied -Glenn Erickson
TTITLE8=The Turkey and The Sheriff -Phillip Clarkson
TTITLE9=IQuit Hurting Yesterdays -Glenn Erickson
TTITLE10=Just Walk Away -Chris Anderson
TTITLE11=Tiny Little Corner Of Your Heart -Glenn Erickson
TTITLE12=The Ghost Of Hank
TTITLE13=On A Day Like This -Glenn Erickson
TTITLE14=I´ll Soon Get Over You -Gail Russell
TTITLE15=Matter A´ Time -Glenn Erickson
TTITLE16=L A Freeway Woman -Ryan Somerville
TTITLE17=Epitaph -Glenn Erickson
TTITLE18=Some Gav All -Chris Anderson
TTITLE19=Don´t Ever Take Your Love From Me -Glenn Erickson
TTITLE20=That Chapter In My Life -Polly Parker
TTITLE21=She´s Gone -Glenn Erickson
TTITLE22=You Know How To Turn Me On -Man Kaylor and Julie Maners
EXTD=
EXTT0=
EXTT1=
EXTT2=
EXTT3=
EXTT4=
EXTT5=
EXTT6=
EXTT7=
EXTT8=
EXTT9=
EXTT10=
EXTT11=
EXTT12=
EXTT13=
EXTT14=
EXTT15=
EXTT16=
EXTT17=
EXTT18=
EXTT19=
EXTT20=
EXTT21=
EXTT22=
PLAYORDER=
